<svg width="716" height="228" viewBox="0 0 716 228" fill="none" xmlns="http://www.w3.org/2000/svg">
<path d="M0.5 4.5V5M0.5 5V216H6V221.5H10V227H15.5H700L705 225V221.5C706.667 222.167 710 223.1 710 221.5C710 219.9 710 217.167 710 216H715.5L713.5 0.5H416V32H422V37.5H427V42H431.5V46.5H435.5V51H440V55H444.5V61H449.5V64.5H454V71H458.5L459.5 74.5H463.5V84H458.5V89H444.5L445.5 93.5H426.5V97.5H417V102.5H397L397.5 98.5H388.5V93.5H369.5V89C364.833 89.3333 355.5 89.8 355.5 89C355.5 88.2 355.5 85.3333 355.5 84H350V74.5H355.5V70H361L360 65.5H364.5V61H369.5V56H374V51H378.5V46.5H383.5L383 41.5H388.5V37.5H393.5V32H397.5V0.5H0.5V5Z" stroke="black"/>
</svg>
