<svg width="247" height="415" viewBox="0 0 247 415" fill="none" xmlns="http://www.w3.org/2000/svg">
<path d="M16.5 193.5L79 196V198.5H81.5V201.5H92.5V203H99L100 185.5H107V175H109V162.5H111.5L113 156H116L114.5 117H121V101.5H122.5V88.5H125V87H130.5V78.5H152.5V75L175.5 76L177 60L178.5 58L180 54.5H164.5V58H151.5V54.5L147.5 53.5V11H150.5L151.5 9H153.5V0.5H198.5V23.5L200.5 25V54.5H185.5V76H189.5V73H213.5L214.5 70.5H238V73H242L246.5 78.5V98H245V109.5H242L243 115L240.5 116V124.5H238V128.5L236.5 130V136.5L235 137.5V149H231.5L230.5 167V172.5H228V179L226 180.5V191L225 192.5V198.5H223.5V212.5L220.5 213.5V219.5L219.5 232.5L216.5 233.5V234.5V241V243.5V258H213L209 268L203.5 266.5V265H195.5L194.5 268L190.5 269H189.5H180.5V273L176.5 274L175.5 275L165 274L149.5 276H148H146V284.5L130 286V293.5H124L123.5 301H127.5V345.5L130 346.5L131.5 347.5H137L143 349V350.5L153 350L162 350.5L162.5 352H164H168.5H172.5V353H180L181 355.5L183.5 356H185L198 356.5V362L197.5 363.5L198 365L198.5 366.5L197.5 379.5L195.5 379L196 381H186L185.5 379.5L181.5 379L181 376H179L180 365H177.5L177 366H168.5V366.5H154.5L154 367.5H148L155.5 373.5L167 380C169.167 381.333 173.5 384.2 173.5 385C173.5 385.8 173.833 387.333 174 388L175 393.5H171V396L171.5 397V399H174C173.833 402.167 173.5 408.6 173.5 409C173.5 409.4 172.167 409.167 171.5 409V413.5H165.5L165 414.5H158V412.5H155.5V400L156 391.5H154.5L124 370.5L123.5 368.5H114.5V379L104 379.5V378H99.5L99 366H88V367.5H74.5L74 369L63.5 369.5V371H56L56.5 372H49.5L50 373H44V374.5H32V375.5L34.5 376V378.5H37V391H34.5L34 392.5H30.5V394H24.5V392H20.5L20 390.5H19L18 384.5H16.5V377.5H17.5L18 371H20L20.5 363.5H27H31.5L32 362.5L35 362L34.5 360H39.5L40 359.5H46.5V357.5H51L51.5 356.5V355L50 354L50.5 344.5H48.5L45.5 343.5V338.5L47.5 338H50L51.5 336L54 337V335H62.5V337H64.5V338H70L75 339H82L84 341H88H106.5L107 306H100.5L97.5 305L96.5 306L91.5 303.5L90.5 301L82 302V303.5H79.5V306H66.5H62.5V302.5H67.5V300H71.5L72 300.5H75L77 299.5L77.5 292L56.5 291.5L57 287L40.5 286H31L30.5 279.5H25L22.5 277.5L22 275H19.5L19 268L13 267H1.5L0.5 260.5V243.5H2L3 240.5H5V239H12.5L13 236H19V211.5H12.5L13.5 206.5H11V198.5H13.5V195.5L16.5 196V193.5Z" stroke="black"/>
</svg>
