<svg width="55" height="75" viewBox="0 0 55 75" fill="none" xmlns="http://www.w3.org/2000/svg">
<path d="M4 58.5V46.5V45.5H13.5L15 44.5L15.5 42H11.5L9 39.5L8 38L4 37L2.5 35L1.5 32.5L1 30.5L2.5 28.5V27H5L6 28.5L10 30L12.5 31.5L13.5 30.5L12.5 25.5L11.5 23.5V20L10 17.5V14.5L15.5 15V16.5H17L19 18.5L19.5 13L21 11H23L25 9L27.5 5.5L30.5 4.5H34V1H37.5L38.5 3.5L39.5 4.5L37.5 6V8L36.5 10.5L35.5 11L36 13.5V15V20V27L38.5 28.5L40 27V22.5L41.5 18.5L43.5 16.5L46 18.5H46.5L48.5 20L49.5 21.5L51.5 22.5V24.5H46L45.5 26.5L46.5 30V35L48.5 36L52.5 34H54L51.5 39.5L48.5 40H46.5L46 42.5H50V44.5L48.5 45.5V46.5V49.5V59.5H45.5L46 61L45.5 62L43.5 67L42.5 68L41.5 71V74.5H15.5L14.5 72.5H11V69.5L9.5 63.5L6.5 60.5L4 58.5Z" stroke="black"/>
</svg>
