<svg width="102" height="152" viewBox="0 0 102 152" fill="none" xmlns="http://www.w3.org/2000/svg">
<path d="M24.1618 93.9538H28.7574L32.1581 92.4769L36.9375 93.9538L35.8346 90.2615L32.1581 87.3077L30.8713 83.8H28.7574L24.1618 82.1385L16.8088 80.8462L14.6029 78.4462V75.5846L7.98529 73.9231V65.4308L5.41176 64.3231V61.3692L1 59.3385V45.4923L3.94118 46.9692V43.2769L7.06618 42.3538V33.5846V31V26.2H13.3162L14.6029 18.2615L16.8088 17.1538L19.75 15.3077L21.0368 12.7231H24.1618V7.73846H28.7574L33.261 5.52308L35.8346 7.73846V2.66154H41.9007L44.2904 5.52308L49.0699 1H57.8934V2.66154H61.9375V5.52308H63.9596V7.73846H71.4044L72.5074 9.95385H79.4926L81.3309 19.9231H89.2353V23.8H91.0735L92.7279 33.5846L97.1397 36.3538L98.9779 38.7538V46.9692L101 48.6308V67.2769H97.1397V69.6769V73L92.7279 73.9231L93.6471 82.1385H84.0882V85.8308H81.3309L82.6176 92.4769H85.1912L84.0882 131.892H82.6176V134.108V144.631L77.6544 146.292V148.508H73.6103V151H42.8199H36.7537L35.2831 148.508H30.5037L27.6544 133L26.1838 121.185L24.1618 100.415V93.9538Z" stroke="black"/>
</svg>
