<svg width="115" height="331" viewBox="0 0 115 331" fill="none" xmlns="http://www.w3.org/2000/svg">
<path d="M41 239H47V231.5H34V226.5H31V219.5L30 218.5V210L31 209.5V207H23V204.5H18.5V200L15 200.5V195.5L13 194.5V179.5H22V182H30.5L31 183H33V188L35.5 188.5L36 200.5L37.5 200L39 199H41.5H43.5H47V189L48.5 185L47 178.5L45 176.5L41.5 177L41 174L36.5 173V170L34.5 169V165.5L32 166L33 156H29V148.5L31 148L32 146.5H34.5L35.5 148H39H43.5V151H44.5L46 149.5H48.5V137.5H44L44.5 133L37 132V127.5H31V122.5L26.5 121.5V98L23 97H16.5V94H13.5V76L9.5 77V75H7.5V72.5H3.5V67H1V59.5H2V56.5L4.5 56V41.5H6.5V37H14V35H29V38.5H32.5V40H34.5V46L35.5 46.5V56.5L34 56V67H35L36.5 69V70L38 71L40 69V61H43.5V56H48L48.5 55H53.5L54 37H45.5V33H42V29.5H38V27L35 26L35.5 3.5H38L39 1H58V5H61.5V11.5H63.5V31L61 32L61.5 34.5H60V38.5H63.5V33H70.5V27.5L84.5 27V31H89L90 35L93 36V40H94.5V56.5L96 56V64.5V88L94.5 89V96.5L92 97L91.5 99H90V103.5H85.5V106.5H79V110H67V126.5H65V130.5H63V133V135V137H78V140.5H84V146L87 146.5V148L89.5 149V156H85.5V160.5H87L88 168L85.5 167.5V170L83.5 170.5L82.5 174L80.5 173L81.5 178.5H78L77 195.5H80L79.5 193H83.5V188H85L85.5 174.5L89.5 174V169H105V196.5H102.5V197.5H93.5L91 195.5H85V200H78V204.5H85V201.5L91 200H98L101.5 201L105 202.5L106.5 210.5L105 216L102.5 218.5L101.5 222L98 225.5L95 229.5L91 228L89.5 225.5L87 224L82.5 223L81.5 218.5L80 215L77 214V239H84.5V240H99.5L100.5 242.5H101.5H109.5V243.5V245.5H114V259L111 260.5C110.2 260.9 109.667 262.333 109.5 263V277.5L106.5 280.5V318H103L102 324.5L98 328.5L87 329.5L70 330.5L52.5 329.5H44.5L38 328.5L36 326L32.5 324.5L28.5 320L27 315.5L25.5 311.5L24 277.5L22.5 272V263L20.5 261.5V259H16V241H20.5L27 240H32.5L34 239L40 240L41 239Z" stroke="black"/>
</svg>
