<svg width="100" height="122" viewBox="0 0 100 122" fill="none" xmlns="http://www.w3.org/2000/svg">
<path d="M41.5 3.5V1H63.5V3.5H65.5V6.5H73V10H76.5V16.5H87V20L93 20.5L93.5 23L98 23.5V30.5L99.5 33.5V38.5L97 39.5L96 40.5V44.5L94.5 45.5V46.5V102.5L93 105.5V111L90 112.5L88 118L82.5 118.5L81.5 120.5L46 121.5H35.5V119.5L25.5 120.5V118H21.5V115.5H17.5L17 112.5L15 110.5L14 101.5V97L12.5 95.5H10L9.5 71L9 51.5L7.5 40.5L5.5 39.5V36.5H1V20.5H8V16.5H16V14.5H23.5V10H31H33V5L36.5 3.5H41.5Z" stroke="black"/>
</svg>
