<?xml version="1.0" encoding="UTF-8"?>
<svg shape-rendering="crispEdges" id="Layer_2" data-name="Layer 2" xmlns="http://www.w3.org/2000/svg" viewBox="0 0 163.5 899.27">
  <defs>
    <style>
      .cls-1 {
        fill: #d86100;
      }

      .cls-2 {
        fill: #fff2bd;
      }

      .cls-3 {
        fill: #ffca45;
      }

      .cls-4 {
        fill: #fba71a;
      }

      .cls-5 {
        fill: #ffec8a;
      }

      .cls-6 {
        fill: #f8860f;
      }
    </style>
  </defs>
  <g id="_ÎÓÈ_1" data-name="—ÎÓÈ_1">
    <g>
      <rect class="cls-5" x="0" width="40.88" height="40.88" transform="translate(40.88 40.88) rotate(180)"/>
      <rect class="cls-5" x="40.88" width="40.88" height="40.88" transform="translate(122.63 40.88) rotate(180)"/>
      <rect class="cls-5" x="81.75" width="40.88" height="40.88" transform="translate(204.38 40.88) rotate(180)"/>
      <rect class="cls-5" x="122.63" width="40.88" height="40.88" transform="translate(286.13 40.88) rotate(180)"/>
      <rect class="cls-3" x="0" y="40.88" width="40.88" height="40.88" transform="translate(40.88 122.63) rotate(180)"/>
      <rect class="cls-3" x="40.88" y="40.88" width="40.88" height="40.88" transform="translate(122.63 122.63) rotate(180)"/>
      <rect class="cls-3" x="81.75" y="40.88" width="40.88" height="40.88" transform="translate(204.38 122.63) rotate(180)"/>
      <rect class="cls-3" x="122.63" y="40.88" width="40.88" height="40.88" transform="translate(286.13 122.63) rotate(180)"/>
      <rect class="cls-2" x="0" y="81.75" width="40.88" height="40.88" transform="translate(40.88 204.38) rotate(180)"/>
      <rect class="cls-2" x="40.88" y="81.75" width="40.88" height="40.88" transform="translate(122.63 204.38) rotate(180)"/>
      <rect class="cls-2" x="81.75" y="81.75" width="40.88" height="40.88" transform="translate(204.38 204.38) rotate(180)"/>
      <rect class="cls-2" x="122.63" y="81.75" width="40.88" height="40.88" transform="translate(286.13 204.38) rotate(180)"/>
      <rect class="cls-4" x="0" y="122.63" width="40.88" height="40.88" transform="translate(40.88 286.13) rotate(180)"/>
      <rect class="cls-4" x="40.88" y="122.63" width="40.88" height="40.88" transform="translate(122.63 286.13) rotate(180)"/>
      <rect class="cls-4" x="81.75" y="122.63" width="40.88" height="40.88" transform="translate(204.38 286.13) rotate(180)"/>
      <rect class="cls-4" x="122.63" y="122.63" width="40.88" height="40.88" transform="translate(286.13 286.13) rotate(180)"/>
      <rect class="cls-3" x="0" y="163.5" width="40.88" height="40.88" transform="translate(40.88 367.88) rotate(180)"/>
      <rect class="cls-3" x="40.88" y="163.5" width="40.88" height="40.88" transform="translate(122.63 367.88) rotate(180)"/>
      <rect class="cls-3" x="81.75" y="163.5" width="40.88" height="40.88" transform="translate(204.38 367.88) rotate(180)"/>
      <rect class="cls-3" x="122.63" y="163.5" width="40.88" height="40.88" transform="translate(286.13 367.88) rotate(180)"/>
      <rect class="cls-3" x="0" y="204.38" width="40.88" height="40.88" transform="translate(40.88 449.63) rotate(180)"/>
      <rect class="cls-3" x="40.88" y="204.38" width="40.88" height="40.88" transform="translate(122.63 449.63) rotate(180)"/>
      <rect class="cls-3" x="81.75" y="204.38" width="40.88" height="40.88" transform="translate(204.38 449.63) rotate(180)"/>
      <rect class="cls-3" x="122.63" y="204.38" width="40.88" height="40.88" transform="translate(286.13 449.63) rotate(180)"/>
      <rect class="cls-3" x="0" y="245.25" width="40.88" height="40.88" transform="translate(40.88 531.38) rotate(180)"/>
      <rect class="cls-3" x="40.88" y="245.25" width="40.88" height="40.88" transform="translate(122.63 531.38) rotate(180)"/>
      <rect class="cls-3" x="81.75" y="245.25" width="40.88" height="40.88" transform="translate(204.38 531.38) rotate(180)"/>
      <rect class="cls-3" x="122.63" y="245.25" width="40.88" height="40.88" transform="translate(286.13 531.38) rotate(180)"/>
      <rect class="cls-5" x="0" y="286.13" width="40.88" height="40.88" transform="translate(40.88 613.14) rotate(180)"/>
      <rect class="cls-5" x="40.88" y="286.13" width="40.88" height="40.88" transform="translate(122.63 613.14) rotate(180)"/>
      <rect class="cls-5" x="81.75" y="286.13" width="40.88" height="40.88" transform="translate(204.38 613.14) rotate(180)"/>
      <rect class="cls-5" x="122.63" y="286.13" width="40.88" height="40.88" transform="translate(286.13 613.14) rotate(180)"/>
      <rect class="cls-5" x="0" y="327.01" width="40.88" height="40.88" transform="translate(40.88 694.89) rotate(180)"/>
      <rect class="cls-5" x="40.88" y="327.01" width="40.88" height="40.88" transform="translate(122.63 694.89) rotate(180)"/>
      <rect class="cls-5" x="81.75" y="327.01" width="40.88" height="40.88" transform="translate(204.38 694.89) rotate(180)"/>
      <rect class="cls-5" x="122.63" y="327.01" width="40.88" height="40.88" transform="translate(286.13 694.89) rotate(180)"/>
      <rect class="cls-5" x="0" y="367.88" width="40.88" height="40.88" transform="translate(40.88 776.64) rotate(180)"/>
      <rect class="cls-5" x="40.88" y="367.88" width="40.88" height="40.88" transform="translate(122.63 776.64) rotate(180)"/>
      <rect class="cls-5" x="81.75" y="367.88" width="40.88" height="40.88" transform="translate(204.38 776.64) rotate(180)"/>
      <rect class="cls-5" x="122.63" y="367.88" width="40.88" height="40.88" transform="translate(286.13 776.64) rotate(180)"/>
      <rect class="cls-5" y="408.76" width="40.88" height="40.88" transform="translate(40.88 858.39) rotate(180)"/>
      <rect class="cls-5" x="40.88" y="408.76" width="40.88" height="40.88" transform="translate(122.63 858.39) rotate(180)"/>
      <rect class="cls-5" x="81.75" y="408.76" width="40.88" height="40.88" transform="translate(204.38 858.39) rotate(180)"/>
      <rect class="cls-5" x="122.63" y="408.76" width="40.88" height="40.88" transform="translate(286.13 858.39) rotate(180)"/>
      <rect class="cls-5" x="0" y="449.63" width="40.88" height="40.88" transform="translate(40.88 940.14) rotate(180)"/>
      <rect class="cls-5" x="40.88" y="449.63" width="40.88" height="40.88" transform="translate(122.63 940.14) rotate(180)"/>
      <rect class="cls-5" x="81.75" y="449.63" width="40.88" height="40.88" transform="translate(204.38 940.14) rotate(180)"/>
      <rect class="cls-5" x="122.63" y="449.63" width="40.88" height="40.88" transform="translate(286.13 940.14) rotate(180)"/>
      <rect class="cls-5" x="0" y="490.51" width="40.88" height="40.88" transform="translate(40.88 1021.89) rotate(180)"/>
      <rect class="cls-5" x="40.88" y="490.51" width="40.88" height="40.88" transform="translate(122.63 1021.89) rotate(180)"/>
      <rect class="cls-5" x="81.75" y="490.51" width="40.88" height="40.88" transform="translate(204.38 1021.89) rotate(180)"/>
      <rect class="cls-5" x="122.63" y="490.51" width="40.88" height="40.88" transform="translate(286.13 1021.89) rotate(180)"/>
      <rect class="cls-5" x="0" y="531.38" width="40.88" height="40.88" transform="translate(40.88 1103.64) rotate(180)"/>
      <rect class="cls-5" x="40.88" y="531.38" width="40.88" height="40.88" transform="translate(122.63 1103.64) rotate(180)"/>
      <rect class="cls-5" x="81.75" y="531.38" width="40.88" height="40.88" transform="translate(204.38 1103.64) rotate(180)"/>
      <rect class="cls-5" x="122.63" y="531.38" width="40.88" height="40.88" transform="translate(286.13 1103.64) rotate(180)"/>
      <rect class="cls-5" x="0" y="572.26" width="40.88" height="40.88" transform="translate(40.88 1185.4) rotate(180)"/>
      <rect class="cls-5" x="40.88" y="572.26" width="40.88" height="40.88" transform="translate(122.63 1185.4) rotate(180)"/>
      <rect class="cls-5" x="81.75" y="572.26" width="40.88" height="40.88" transform="translate(204.38 1185.4) rotate(180)"/>
      <rect class="cls-5" x="122.63" y="572.26" width="40.88" height="40.88" transform="translate(286.13 1185.4) rotate(180)"/>
      <rect class="cls-3" x="0" y="613.14" width="40.88" height="40.88" transform="translate(40.88 1267.15) rotate(180)"/>
      <rect class="cls-3" x="40.88" y="613.14" width="40.88" height="40.88" transform="translate(122.63 1267.15) rotate(180)"/>
      <rect class="cls-3" x="81.75" y="613.14" width="40.88" height="40.88" transform="translate(204.38 1267.15) rotate(180)"/>
      <rect class="cls-3" x="122.63" y="613.14" width="40.88" height="40.88" transform="translate(286.13 1267.15) rotate(180)"/>
      <rect class="cls-3" x="0" y="654.01" width="40.88" height="40.88" transform="translate(40.88 1348.9) rotate(180)"/>
      <rect class="cls-3" x="40.88" y="654.01" width="40.88" height="40.88" transform="translate(122.63 1348.9) rotate(180)"/>
      <rect class="cls-3" x="81.75" y="654.01" width="40.88" height="40.88" transform="translate(204.38 1348.9) rotate(180)"/>
      <rect class="cls-3" x="122.63" y="654.01" width="40.88" height="40.88" transform="translate(286.13 1348.9) rotate(180)"/>
      <rect class="cls-3" y="694.89" width="40.88" height="40.88" transform="translate(40.88 1430.65) rotate(180)"/>
      <rect class="cls-3" x="40.88" y="694.89" width="40.88" height="40.88" transform="translate(122.63 1430.65) rotate(180)"/>
      <rect class="cls-3" x="81.75" y="694.89" width="40.88" height="40.88" transform="translate(204.38 1430.65) rotate(180)"/>
      <rect class="cls-3" x="122.63" y="694.89" width="40.88" height="40.88" transform="translate(286.13 1430.65) rotate(180)"/>
      <rect class="cls-6" x="0" y="735.76" width="40.88" height="40.88" transform="translate(40.88 1512.4) rotate(180)"/>
      <rect class="cls-6" x="40.88" y="735.76" width="40.88" height="40.88" transform="translate(122.63 1512.4) rotate(180)"/>
      <rect class="cls-6" x="81.75" y="735.76" width="40.88" height="40.88" transform="translate(204.38 1512.4) rotate(180)"/>
      <rect class="cls-6" x="122.63" y="735.76" width="40.88" height="40.88" transform="translate(286.13 1512.4) rotate(180)"/>
      <rect class="cls-1" x="0" y="776.64" width="40.88" height="40.88" transform="translate(40.88 1594.15) rotate(180)"/>
      <rect class="cls-1" x="40.88" y="776.64" width="40.88" height="40.88" transform="translate(122.63 1594.15) rotate(180)"/>
      <rect class="cls-1" x="81.75" y="776.64" width="40.88" height="40.88" transform="translate(204.38 1594.15) rotate(180)"/>
      <rect class="cls-1" x="122.63" y="776.64" width="40.88" height="40.88" transform="translate(286.13 1594.15) rotate(180)"/>
      <rect class="cls-3" x="0" y="817.51" width="40.88" height="40.88" transform="translate(40.88 1675.9) rotate(180)"/>
      <rect class="cls-3" x="40.88" y="817.51" width="40.88" height="40.88" transform="translate(122.63 1675.9) rotate(180)"/>
      <rect class="cls-3" x="81.75" y="817.51" width="40.88" height="40.88" transform="translate(204.38 1675.9) rotate(180)"/>
      <rect class="cls-3" x="122.63" y="817.51" width="40.88" height="40.88" transform="translate(286.13 1675.9) rotate(180)"/>
      <rect class="cls-5" x="0" y="858.39" width="40.88" height="40.88" transform="translate(40.88 1757.66) rotate(180)"/>
      <rect class="cls-5" x="40.88" y="858.39" width="40.88" height="40.88" transform="translate(122.63 1757.66) rotate(180)"/>
      <rect class="cls-5" x="81.75" y="858.39" width="40.88" height="40.88" transform="translate(204.38 1757.66) rotate(180)"/>
      <rect class="cls-5" x="122.63" y="858.39" width="40.88" height="40.88" transform="translate(286.13 1757.66) rotate(180)"/>
    </g>
  </g>
</svg>