<?xml version="1.0" encoding="UTF-8"?>
<svg shape-rendering="crispEdges" id="Layer_2" data-name="Layer 2" xmlns="http://www.w3.org/2000/svg" viewBox="0 0 613.13 899.27">
  <defs>
    <style>
      .cls-1 {
        fill: #d86100;
      }

      .cls-2 {
        fill: #fff2bd;
      }

      .cls-3 {
        fill: #ffca45;
      }

      .cls-4 {
        fill: #fba71a;
      }

      .cls-5 {
        fill: #ffec8a;
      }

      .cls-6 {
        fill: #f8860f;
      }
    </style>
  </defs>
  <g id="_ÎÓÈ_1" data-name="—ÎÓÈ_1">
    <g>
      <rect class="cls-6" x="327" width="40.88" height="40.88"/>
      <rect class="cls-5" x="286.13" width="40.88" height="40.88"/>
      <rect class="cls-5" x="245.25" width="40.88" height="40.88"/>
      <rect class="cls-5" x="204.38" width="40.88" height="40.88"/>
      <rect class="cls-3" x="245.25" y="40.88" width="40.88" height="40.88"/>
      <rect class="cls-3" x="204.38" y="40.88" width="40.88" height="40.88"/>
      <rect class="cls-3" x="163.5" y="40.88" width="40.88" height="40.88"/>
      <rect class="cls-2" x="204.38" y="81.75" width="40.88" height="40.88"/>
      <rect class="cls-2" x="163.5" y="81.75" width="40.88" height="40.88"/>
      <rect class="cls-2" x="122.63" y="81.75" width="40.88" height="40.88"/>
      <rect class="cls-4" x="163.5" y="122.63" width="40.88" height="40.88"/>
      <rect class="cls-4" x="122.63" y="122.63" width="40.88" height="40.88"/>
      <rect class="cls-4" x="81.75" y="122.63" width="40.88" height="40.88"/>
      <rect class="cls-3" x="122.63" y="163.5" width="40.88" height="40.88"/>
      <rect class="cls-3" x="81.75" y="163.5" width="40.88" height="40.88"/>
      <rect class="cls-3" x="40.88" y="163.5" width="40.88" height="40.88"/>
      <rect class="cls-3" x="122.63" y="204.38" width="40.88" height="40.88"/>
      <rect class="cls-3" x="81.75" y="204.38" width="40.88" height="40.88"/>
      <rect class="cls-3" x="40.88" y="204.38" width="40.88" height="40.88"/>
      <rect class="cls-3" x="122.63" y="245.25" width="40.88" height="40.88"/>
      <rect class="cls-3" x="81.75" y="245.25" width="40.88" height="40.88"/>
      <rect class="cls-3" x="40.88" y="245.25" width="40.88" height="40.88"/>
      <rect class="cls-5" x="81.75" y="286.13" width="40.88" height="40.88"/>
      <rect class="cls-5" x="40.88" y="286.13" width="40.88" height="40.88"/>
      <rect class="cls-5" y="286.13" width="40.88" height="40.88"/>
      <rect class="cls-5" x="81.75" y="327.01" width="40.88" height="40.88"/>
      <rect class="cls-5" x="40.88" y="327.01" width="40.88" height="40.88"/>
      <rect class="cls-5" y="327.01" width="40.88" height="40.88"/>
      <rect class="cls-5" x="81.75" y="367.88" width="40.88" height="40.88"/>
      <rect class="cls-5" x="40.88" y="367.88" width="40.88" height="40.88"/>
      <rect class="cls-5" y="367.88" width="40.88" height="40.88"/>
      <rect class="cls-5" x="81.75" y="408.76" width="40.88" height="40.88"/>
      <rect class="cls-5" x="40.88" y="408.76" width="40.88" height="40.88"/>
      <rect class="cls-5" y="408.76" width="40.88" height="40.88"/>
      <rect class="cls-5" x="81.75" y="449.63" width="40.88" height="40.88"/>
      <rect class="cls-5" x="40.88" y="449.63" width="40.88" height="40.88"/>
      <rect class="cls-5" y="449.63" width="40.88" height="40.88"/>
      <rect class="cls-5" x="81.75" y="490.51" width="40.88" height="40.88"/>
      <rect class="cls-5" x="40.88" y="490.51" width="40.88" height="40.88"/>
      <rect class="cls-5" y="490.51" width="40.88" height="40.88"/>
      <rect class="cls-5" x="81.75" y="531.38" width="40.88" height="40.88"/>
      <rect class="cls-5" x="40.88" y="531.38" width="40.88" height="40.88"/>
      <rect class="cls-5" y="531.38" width="40.88" height="40.88"/>
      <rect class="cls-5" x="81.75" y="572.26" width="40.88" height="40.88"/>
      <rect class="cls-5" x="40.88" y="572.26" width="40.88" height="40.88"/>
      <rect class="cls-5" y="572.26" width="40.88" height="40.88"/>
      <rect class="cls-3" x="122.63" y="613.14" width="40.88" height="40.88"/>
      <rect class="cls-3" x="81.75" y="613.14" width="40.88" height="40.88"/>
      <rect class="cls-3" x="40.88" y="613.14" width="40.88" height="40.88"/>
      <rect class="cls-3" x="122.63" y="654.01" width="40.88" height="40.88"/>
      <rect class="cls-3" x="81.75" y="654.01" width="40.88" height="40.88"/>
      <rect class="cls-3" x="40.88" y="654.01" width="40.88" height="40.88"/>
      <rect class="cls-3" x="122.63" y="694.89" width="40.88" height="40.88"/>
      <rect class="cls-3" x="81.75" y="694.89" width="40.88" height="40.88"/>
      <rect class="cls-3" x="40.88" y="694.89" width="40.88" height="40.88"/>
      <rect class="cls-6" x="163.5" y="735.76" width="40.88" height="40.88"/>
      <rect class="cls-6" x="122.63" y="735.76" width="40.88" height="40.88"/>
      <rect class="cls-6" x="81.75" y="735.76" width="40.88" height="40.88"/>
      <rect class="cls-1" x="204.38" y="776.64" width="40.88" height="40.88"/>
      <rect class="cls-1" x="163.5" y="776.64" width="40.88" height="40.88"/>
      <rect class="cls-1" x="122.63" y="776.64" width="40.88" height="40.88"/>
      <rect class="cls-3" x="245.25" y="817.51" width="40.88" height="40.88"/>
      <rect class="cls-3" x="204.38" y="817.51" width="40.88" height="40.88"/>
      <rect class="cls-3" x="163.5" y="817.51" width="40.88" height="40.88"/>
      <rect class="cls-5" x="286.13" y="858.39" width="40.88" height="40.88"/>
      <rect class="cls-5" x="245.25" y="858.39" width="40.88" height="40.88"/>
      <rect class="cls-5" x="204.38" y="858.39" width="40.88" height="40.88"/>
      <rect class="cls-4" x="286.13" y="40.88" width="40.88" height="40.88"/>
      <rect class="cls-4" x="327" y="40.88" width="40.88" height="40.88"/>
      <rect class="cls-4" x="367.88" y="40.88" width="40.88" height="40.88"/>
      <rect class="cls-4" x="286.13" y="81.75" width="40.88" height="40.88"/>
      <rect class="cls-4" x="327" y="81.75" width="40.88" height="40.88"/>
      <rect class="cls-4" x="367.88" y="81.75" width="40.88" height="40.88"/>
      <rect class="cls-4" x="408.76" y="81.75" width="40.88" height="40.88"/>
      <rect class="cls-4" x="245.25" y="81.75" width="40.88" height="40.88"/>
      <rect class="cls-1" x="286.13" y="122.63" width="40.88" height="40.88"/>
      <rect class="cls-1" x="327" y="122.63" width="40.88" height="40.88"/>
      <rect class="cls-1" x="367.88" y="122.63" width="40.88" height="40.88"/>
      <rect class="cls-4" x="408.76" y="122.63" width="40.88" height="40.88"/>
      <rect class="cls-4" x="245.25" y="122.63" width="40.88" height="40.88"/>
      <rect class="cls-4" x="204.38" y="122.63" width="40.88" height="40.88"/>
      <rect class="cls-6" x="286.13" y="163.5" width="40.88" height="40.88"/>
      <rect class="cls-6" x="327" y="163.5" width="40.88" height="40.88"/>
      <rect class="cls-6" x="367.88" y="163.5" width="40.88" height="40.88"/>
      <rect class="cls-1" x="408.76" y="163.5" width="40.88" height="40.88"/>
      <rect class="cls-1" x="245.25" y="163.5" width="40.88" height="40.88"/>
      <rect class="cls-4" x="204.38" y="163.5" width="40.88" height="40.88"/>
      <rect class="cls-6" x="286.13" y="204.38" width="40.88" height="40.88"/>
      <rect class="cls-6" x="327" y="204.38" width="40.88" height="40.88"/>
      <rect class="cls-6" x="367.88" y="204.38" width="40.88" height="40.88"/>
      <rect class="cls-1" x="408.76" y="204.38" width="40.88" height="40.88"/>
      <rect class="cls-4" x="245.25" y="204.38" width="40.88" height="40.88"/>
      <rect class="cls-4" x="204.38" y="204.38" width="40.88" height="40.88"/>
      <rect class="cls-6" x="286.13" y="245.25" width="40.88" height="40.88"/>
      <rect class="cls-6" x="327" y="245.25" width="40.88" height="40.88"/>
      <rect class="cls-6" x="367.88" y="245.25" width="40.88" height="40.88"/>
      <rect class="cls-6" x="408.76" y="245.25" width="40.88" height="40.88"/>
      <rect class="cls-4" x="245.25" y="245.25" width="40.88" height="40.88"/>
      <rect class="cls-4" x="204.38" y="245.25" width="40.88" height="40.88"/>
      <rect class="cls-4" x="163.5" y="163.5" width="40.88" height="40.88"/>
      <rect class="cls-4" x="163.5" y="204.38" width="40.88" height="40.88"/>
      <rect class="cls-4" x="163.5" y="245.25" width="40.88" height="40.88"/>
      <rect class="cls-6" x="286.13" y="286.13" width="40.88" height="40.88"/>
      <rect class="cls-6" x="327" y="286.13" width="40.88" height="40.88"/>
      <rect class="cls-6" x="367.88" y="286.13" width="40.88" height="40.88"/>
      <rect class="cls-6" x="408.76" y="286.13" width="40.88" height="40.88"/>
      <rect class="cls-6" x="245.25" y="286.13" width="40.88" height="40.88"/>
      <rect class="cls-1" x="204.38" y="286.13" width="40.88" height="40.88"/>
      <rect class="cls-6" x="245.25" y="245.25" width="40.88" height="40.88"/>
      <rect class="cls-1" x="204.38" y="245.25" width="40.88" height="40.88"/>
      <rect class="cls-1" x="245.25" y="204.38" width="40.88" height="40.88"/>
      <rect class="cls-6" x="286.13" y="327.01" width="40.88" height="40.88"/>
      <rect class="cls-6" x="327" y="327.01" width="40.88" height="40.88"/>
      <rect class="cls-6" x="367.88" y="327.01" width="40.88" height="40.88"/>
      <rect class="cls-6" x="408.76" y="327.01" width="40.88" height="40.88"/>
      <rect class="cls-6" x="245.25" y="327.01" width="40.88" height="40.88"/>
      <rect class="cls-1" x="204.38" y="327.01" width="40.88" height="40.88"/>
      <rect class="cls-6" x="286.13" y="367.88" width="40.88" height="40.88"/>
      <rect class="cls-6" x="327" y="367.88" width="40.88" height="40.88"/>
      <rect class="cls-6" x="367.88" y="367.88" width="40.88" height="40.88"/>
      <rect class="cls-4" x="408.76" y="367.88" width="40.88" height="40.88"/>
      <rect class="cls-6" x="245.25" y="367.88" width="40.88" height="40.88"/>
      <rect class="cls-6" x="204.38" y="367.88" width="40.88" height="40.88"/>
      <rect class="cls-4" x="163.5" y="286.13" width="40.88" height="40.88"/>
      <rect class="cls-1" x="163.5" y="327.01" width="40.88" height="40.88"/>
      <rect class="cls-1" x="163.5" y="367.88" width="40.88" height="40.88"/>
      <rect class="cls-6" x="286.13" y="408.76" width="40.88" height="40.88"/>
      <rect class="cls-6" x="327" y="408.76" width="40.88" height="40.88"/>
      <rect class="cls-4" x="367.88" y="408.76" width="40.88" height="40.88"/>
      <rect class="cls-4" x="408.76" y="408.76" width="40.88" height="40.88"/>
      <rect class="cls-6" x="245.25" y="408.76" width="40.88" height="40.88"/>
      <rect class="cls-6" x="204.38" y="408.76" width="40.88" height="40.88"/>
      <rect class="cls-6" x="286.13" y="449.63" width="40.88" height="40.88"/>
      <rect class="cls-4" x="327" y="449.63" width="40.88" height="40.88"/>
      <rect class="cls-4" x="367.88" y="449.63" width="40.88" height="40.88"/>
      <rect class="cls-4" x="408.76" y="449.63" width="40.88" height="40.88"/>
      <rect class="cls-6" x="245.25" y="449.63" width="40.88" height="40.88"/>
      <rect class="cls-6" x="204.38" y="449.63" width="40.88" height="40.88"/>
      <rect class="cls-4" x="286.13" y="490.51" width="40.88" height="40.88"/>
      <rect class="cls-4" x="327" y="490.51" width="40.88" height="40.88"/>
      <rect class="cls-4" x="367.88" y="490.51" width="40.88" height="40.88"/>
      <rect class="cls-3" x="408.76" y="490.51" width="40.88" height="40.88"/>
      <rect class="cls-6" x="245.25" y="490.51" width="40.88" height="40.88"/>
      <rect class="cls-6" x="204.38" y="490.51" width="40.88" height="40.88"/>
      <rect class="cls-1" x="163.5" y="408.76" width="40.88" height="40.88"/>
      <rect class="cls-1" x="163.5" y="449.63" width="40.88" height="40.88"/>
      <rect class="cls-1" x="163.5" y="490.51" width="40.88" height="40.88"/>
      <rect class="cls-4" x="286.13" y="531.38" width="40.88" height="40.88"/>
      <rect class="cls-4" x="327.01" y="531.38" width="40.88" height="40.88"/>
      <rect class="cls-4" x="367.88" y="531.38" width="40.88" height="40.88"/>
      <rect class="cls-5" x="408.76" y="531.38" width="40.88" height="40.88"/>
      <rect class="cls-6" x="245.25" y="531.38" width="40.88" height="40.88"/>
      <rect class="cls-1" x="204.38" y="531.38" width="40.88" height="40.88"/>
      <rect class="cls-4" x="286.13" y="572.26" width="40.88" height="40.88"/>
      <rect class="cls-4" x="327.01" y="572.26" width="40.88" height="40.88"/>
      <rect class="cls-3" x="367.88" y="572.26" width="40.88" height="40.88"/>
      <rect class="cls-5" x="408.76" y="572.26" width="40.88" height="40.88"/>
      <rect class="cls-4" x="449.63" y="122.63" width="40.88" height="40.88"/>
      <rect class="cls-4" x="449.63" y="163.5" width="40.88" height="40.88"/>
      <rect class="cls-4" x="449.63" y="204.38" width="40.88" height="40.88"/>
      <rect class="cls-1" x="449.63" y="245.25" width="40.88" height="40.88"/>
      <rect class="cls-1" x="449.63" y="286.13" width="40.88" height="40.88"/>
      <rect class="cls-1" x="449.63" y="327.01" width="40.88" height="40.88"/>
      <rect class="cls-5" x="449.63" y="367.88" width="40.88" height="40.88"/>
      <rect class="cls-5" x="449.63" y="408.76" width="40.88" height="40.88"/>
      <rect class="cls-5" x="449.63" y="449.63" width="40.88" height="40.88"/>
      <rect class="cls-5" x="449.63" y="490.51" width="40.88" height="40.88"/>
      <rect class="cls-1" x="449.63" y="531.38" width="40.88" height="40.88"/>
      <rect class="cls-1" x="449.63" y="572.26" width="40.88" height="40.88"/>
      <rect class="cls-4" x="245.25" y="572.26" width="40.88" height="40.88"/>
      <rect class="cls-1" x="204.38" y="572.26" width="40.88" height="40.88"/>
      <rect class="cls-1" x="163.5" y="531.38" width="40.88" height="40.88"/>
      <rect class="cls-4" x="163.5" y="572.26" width="40.88" height="40.88"/>
      <rect class="cls-3" x="327" y="613.14" width="40.88" height="40.88"/>
      <rect class="cls-3" x="367.88" y="613.14" width="40.88" height="40.88"/>
      <rect class="cls-5" x="408.76" y="613.14" width="40.88" height="40.88"/>
      <rect class="cls-1" x="449.63" y="613.14" width="40.88" height="40.88"/>
      <rect class="cls-4" x="286.13" y="613.14" width="40.88" height="40.88"/>
      <rect class="cls-4" x="245.25" y="613.14" width="40.88" height="40.88"/>
      <rect class="cls-3" x="327.01" y="654.01" width="40.88" height="40.88"/>
      <rect class="cls-5" x="367.88" y="654.01" width="40.88" height="40.88"/>
      <rect class="cls-1" x="408.76" y="654.01" width="40.88" height="40.88"/>
      <rect class="cls-4" x="449.63" y="654.01" width="40.88" height="40.88"/>
      <rect class="cls-4" x="286.13" y="654.01" width="40.88" height="40.88"/>
      <rect class="cls-1" x="245.25" y="654.01" width="40.88" height="40.88"/>
      <rect class="cls-5" x="327.01" y="694.89" width="40.88" height="40.88"/>
      <rect class="cls-5" x="367.88" y="694.89" width="40.88" height="40.88"/>
      <rect class="cls-1" x="408.76" y="694.89" width="40.88" height="40.88"/>
      <rect class="cls-4" x="449.63" y="694.89" width="40.88" height="40.88"/>
      <rect class="cls-4" x="490.51" y="163.5" width="40.88" height="40.88"/>
      <rect class="cls-4" x="490.51" y="204.38" width="40.88" height="40.88"/>
      <rect class="cls-4" x="490.51" y="245.25" width="40.88" height="40.88"/>
      <rect class="cls-4" x="490.51" y="286.13" width="40.88" height="40.88"/>
      <rect class="cls-1" x="490.51" y="327.01" width="40.88" height="40.88"/>
      <rect class="cls-1" x="490.51" y="367.88" width="40.88" height="40.88"/>
      <rect class="cls-1" x="490.51" y="408.76" width="40.88" height="40.88"/>
      <rect class="cls-1" x="490.51" y="449.63" width="40.88" height="40.88"/>
      <rect class="cls-1" x="490.51" y="490.51" width="40.88" height="40.88"/>
      <rect class="cls-1" x="490.51" y="531.38" width="40.88" height="40.88"/>
      <rect class="cls-4" x="490.51" y="572.26" width="40.88" height="40.88"/>
      <rect class="cls-4" x="531.38" y="286.13" width="40.88" height="40.88"/>
      <rect class="cls-4" x="531.38" y="327.01" width="40.88" height="40.88"/>
      <rect class="cls-4" x="531.38" y="367.88" width="40.88" height="40.88"/>
      <rect class="cls-4" x="531.38" y="408.76" width="40.88" height="40.88"/>
      <rect class="cls-4" x="531.38" y="449.63" width="40.88" height="40.88"/>
      <rect class="cls-4" x="531.38" y="490.51" width="40.88" height="40.88"/>
      <rect class="cls-4" x="531.38" y="531.38" width="40.88" height="40.88"/>
      <rect class="cls-4" x="531.38" y="572.26" width="40.88" height="40.88"/>
      <rect class="cls-4" x="490.51" y="613.14" width="40.88" height="40.88"/>
      <rect class="cls-4" x="490.51" y="654.01" width="40.88" height="40.88"/>
      <rect class="cls-4" x="490.51" y="694.89" width="40.88" height="40.88"/>
      <rect class="cls-3" x="286.13" y="694.89" width="40.88" height="40.88"/>
      <rect class="cls-1" x="245.25" y="694.89" width="40.88" height="40.88"/>
      <rect class="cls-1" x="327" y="735.76" width="40.88" height="40.88"/>
      <rect class="cls-1" x="367.88" y="735.76" width="40.88" height="40.88"/>
      <rect class="cls-4" x="408.76" y="735.76" width="40.88" height="40.88"/>
      <rect class="cls-4" x="449.63" y="735.76" width="40.88" height="40.88"/>
      <rect class="cls-1" x="286.13" y="735.76" width="40.88" height="40.88"/>
      <rect class="cls-4" x="327.01" y="776.64" width="40.88" height="40.88"/>
      <rect class="cls-4" x="367.88" y="776.64" width="40.88" height="40.88"/>
      <rect class="cls-4" x="327.01" y="817.51" width="40.88" height="40.88"/>
      <rect class="cls-4" x="367.88" y="817.51" width="40.88" height="40.88"/>
      <rect class="cls-4" x="408.76" y="776.64" width="40.88" height="40.88"/>
      <rect class="cls-4" x="286.13" y="776.64" width="40.88" height="40.88"/>
      <rect class="cls-4" x="245.25" y="735.76" width="40.88" height="40.88"/>
      <rect class="cls-1" x="204.38" y="613.14" width="40.88" height="40.88"/>
      <rect class="cls-4" x="204.38" y="654.01" width="40.88" height="40.88"/>
      <rect class="cls-4" x="204.38" y="694.89" width="40.88" height="40.88"/>
      <rect class="cls-4" x="286.13" y="817.51" width="40.88" height="40.88"/>
      <rect class="cls-6" x="327" y="858.39" width="40.88" height="40.88"/>
      <rect class="cls-6" x="367.88" y="858.39" width="40.88" height="40.88"/>
      <rect class="cls-4" x="245.25" y="776.64" width="40.88" height="40.88"/>
      <rect class="cls-4" x="204.38" y="735.76" width="40.88" height="40.88"/>
      <rect class="cls-4" x="163.5" y="694.89" width="40.88" height="40.88"/>
      <rect class="cls-4" x="163.5" y="654.01" width="40.88" height="40.88"/>
      <rect class="cls-4" x="163.5" y="613.14" width="40.88" height="40.88"/>
      <rect class="cls-4" x="122.63" y="286.13" width="40.88" height="40.88"/>
      <rect class="cls-4" x="122.63" y="327.01" width="40.88" height="40.88"/>
      <rect class="cls-4" x="122.63" y="367.88" width="40.88" height="40.88"/>
      <rect class="cls-4" x="122.63" y="408.76" width="40.88" height="40.88"/>
      <rect class="cls-4" x="122.63" y="449.63" width="40.88" height="40.88"/>
      <rect class="cls-4" x="122.63" y="490.51" width="40.88" height="40.88"/>
      <rect class="cls-4" x="122.63" y="531.38" width="40.88" height="40.88"/>
      <rect class="cls-4" x="122.63" y="572.26" width="40.88" height="40.88"/>
      <rect class="cls-6" x="408.76" y="40.88" width="40.88" height="40.88" transform="translate(858.39 122.63) rotate(180)"/>
      <rect class="cls-6" x="449.63" y="81.75" width="40.88" height="40.88" transform="translate(940.14 204.38) rotate(180)"/>
      <rect class="cls-6" x="490.51" y="122.63" width="40.88" height="40.88" transform="translate(1021.89 286.13) rotate(180)"/>
      <rect class="cls-6" x="531.38" y="163.5" width="40.88" height="40.88" transform="translate(1103.64 367.88) rotate(180)"/>
      <rect class="cls-6" x="531.38" y="204.38" width="40.88" height="40.88" transform="translate(1103.64 449.63) rotate(180)"/>
      <rect class="cls-6" x="531.38" y="245.25" width="40.88" height="40.88" transform="translate(1103.64 531.38) rotate(180)"/>
      <rect class="cls-6" x="408.76" y="817.51" width="40.88" height="40.88" transform="translate(858.39 1675.9) rotate(180)"/>
      <rect class="cls-6" x="449.63" y="776.64" width="40.88" height="40.88" transform="translate(940.14 1594.15) rotate(180)"/>
      <rect class="cls-6" x="490.51" y="735.76" width="40.88" height="40.88" transform="translate(1021.89 1512.4) rotate(180)"/>
      <rect class="cls-6" x="531.38" y="694.89" width="40.88" height="40.88" transform="translate(1103.64 1430.65) rotate(180)"/>
      <rect class="cls-6" x="531.38" y="654.01" width="40.88" height="40.88" transform="translate(1103.64 1348.9) rotate(180)"/>
      <rect class="cls-6" x="531.38" y="613.14" width="40.88" height="40.88" transform="translate(1103.64 1267.15) rotate(180)"/>
      <rect class="cls-6" x="572.26" y="286.13" width="40.88" height="40.88" transform="translate(1185.39 613.14) rotate(180)"/>
      <rect class="cls-6" x="572.26" y="327.01" width="40.88" height="40.88" transform="translate(1185.39 694.89) rotate(180)"/>
      <rect class="cls-6" x="572.26" y="367.88" width="40.88" height="40.88" transform="translate(1185.39 776.64) rotate(180)"/>
      <rect class="cls-6" x="572.26" y="408.76" width="40.88" height="40.88" transform="translate(1185.39 858.39) rotate(180)"/>
      <rect class="cls-6" x="572.26" y="449.63" width="40.88" height="40.88" transform="translate(1185.39 940.14) rotate(180)"/>
      <rect class="cls-6" x="572.26" y="490.51" width="40.88" height="40.88" transform="translate(1185.39 1021.89) rotate(180)"/>
      <rect class="cls-6" x="572.26" y="531.38" width="40.88" height="40.88" transform="translate(1185.39 1103.64) rotate(180)"/>
      <rect class="cls-6" x="572.26" y="572.26" width="40.88" height="40.88" transform="translate(1185.39 1185.4) rotate(180)"/>
      <rect class="cls-6" x="367.88" width="40.88" height="40.88"/>
    </g>
  </g>
</svg>