<?xml version="1.0" encoding="UTF-8"?>
<svg shape-rendering="crispEdges" id="Layer_2" data-name="Layer 2" xmlns="http://www.w3.org/2000/svg" viewBox="0 0 613.13 899.27">
  <defs>
    <style>
      .cls-1 {
        fill: #d86100;
      }

      .cls-2 {
        fill: #ffca45;
      }

      .cls-3 {
        fill: #fba71a;
      }

      .cls-4 {
        fill: #ffec8a;
      }

      .cls-5 {
        fill: #f8860f;
      }
    </style>
  </defs>
  <g id="_ÎÓÈ_1" data-name="—ÎÓÈ_1">
    <g>
      <rect class="cls-5" x="245.25" width="40.88" height="40.88" transform="translate(531.38 40.88) rotate(180)"/>
      <rect class="cls-1" x="286.13" width="40.88" height="40.88" transform="translate(613.13 40.88) rotate(180)"/>
      <rect class="cls-1" x="327" width="40.88" height="40.88" transform="translate(694.89 40.88) rotate(180)"/>
      <rect class="cls-1" x="367.88" width="40.88" height="40.88" transform="translate(776.64 40.88) rotate(180)"/>
      <rect class="cls-5" x="327" y="40.88" width="40.88" height="40.88" transform="translate(694.89 122.63) rotate(180)"/>
      <rect class="cls-5" x="367.88" y="40.88" width="40.88" height="40.88" transform="translate(776.64 122.63) rotate(180)"/>
      <rect class="cls-5" x="408.76" y="40.88" width="40.88" height="40.88" transform="translate(858.39 122.63) rotate(180)"/>
      <rect class="cls-2" x="367.88" y="81.75" width="40.88" height="40.88" transform="translate(776.64 204.38) rotate(180)"/>
      <rect class="cls-2" x="408.76" y="81.75" width="40.88" height="40.88" transform="translate(858.39 204.38) rotate(180)"/>
      <rect class="cls-2" x="449.63" y="81.75" width="40.88" height="40.88" transform="translate(940.14 204.38) rotate(180)"/>
      <rect class="cls-5" x="408.76" y="122.63" width="40.88" height="40.88" transform="translate(858.39 286.13) rotate(180)"/>
      <rect class="cls-5" x="449.63" y="122.63" width="40.88" height="40.88" transform="translate(940.14 286.13) rotate(180)"/>
      <rect class="cls-5" x="490.51" y="122.63" width="40.88" height="40.88" transform="translate(1021.89 286.13) rotate(180)"/>
      <rect class="cls-5" x="449.63" y="163.5" width="40.88" height="40.88" transform="translate(940.14 367.88) rotate(180)"/>
      <rect class="cls-5" x="490.51" y="163.5" width="40.88" height="40.88" transform="translate(1021.89 367.88) rotate(180)"/>
      <rect class="cls-5" x="531.38" y="163.5" width="40.88" height="40.88" transform="translate(1103.64 367.88) rotate(180)"/>
      <rect class="cls-5" x="449.63" y="204.38" width="40.88" height="40.88" transform="translate(940.14 449.63) rotate(180)"/>
      <rect class="cls-5" x="490.51" y="204.38" width="40.88" height="40.88" transform="translate(1021.89 449.63) rotate(180)"/>
      <rect class="cls-5" x="531.38" y="204.38" width="40.88" height="40.88" transform="translate(1103.64 449.63) rotate(180)"/>
      <rect class="cls-5" x="449.63" y="245.25" width="40.88" height="40.88" transform="translate(940.14 531.38) rotate(180)"/>
      <rect class="cls-5" x="490.51" y="245.25" width="40.88" height="40.88" transform="translate(1021.89 531.38) rotate(180)"/>
      <rect class="cls-5" x="531.38" y="245.25" width="40.88" height="40.88" transform="translate(1103.64 531.38) rotate(180)"/>
      <rect class="cls-2" x="490.51" y="286.13" width="40.88" height="40.88" transform="translate(1021.89 613.14) rotate(180)"/>
      <rect class="cls-2" x="531.38" y="286.13" width="40.88" height="40.88" transform="translate(1103.64 613.14) rotate(180)"/>
      <rect class="cls-2" x="572.26" y="286.13" width="40.88" height="40.88" transform="translate(1185.39 613.14) rotate(180)"/>
      <rect class="cls-2" x="490.51" y="327.01" width="40.88" height="40.88" transform="translate(1021.89 694.89) rotate(180)"/>
      <rect class="cls-2" x="531.38" y="327.01" width="40.88" height="40.88" transform="translate(1103.64 694.89) rotate(180)"/>
      <rect class="cls-2" x="572.26" y="327.01" width="40.88" height="40.88" transform="translate(1185.39 694.89) rotate(180)"/>
      <rect class="cls-2" x="490.51" y="367.88" width="40.88" height="40.88" transform="translate(1021.89 776.64) rotate(180)"/>
      <rect class="cls-2" x="531.38" y="367.88" width="40.88" height="40.88" transform="translate(1103.64 776.64) rotate(180)"/>
      <rect class="cls-2" x="572.26" y="367.88" width="40.88" height="40.88" transform="translate(1185.39 776.64) rotate(180)"/>
      <rect class="cls-2" x="490.51" y="408.76" width="40.88" height="40.88" transform="translate(1021.89 858.39) rotate(180)"/>
      <rect class="cls-2" x="531.38" y="408.76" width="40.88" height="40.88" transform="translate(1103.64 858.39) rotate(180)"/>
      <rect class="cls-2" x="572.26" y="408.76" width="40.88" height="40.88" transform="translate(1185.39 858.39) rotate(180)"/>
      <rect class="cls-2" x="490.51" y="449.63" width="40.88" height="40.88" transform="translate(1021.89 940.14) rotate(180)"/>
      <rect class="cls-2" x="531.38" y="449.63" width="40.88" height="40.88" transform="translate(1103.64 940.14) rotate(180)"/>
      <rect class="cls-2" x="572.26" y="449.63" width="40.88" height="40.88" transform="translate(1185.39 940.14) rotate(180)"/>
      <rect class="cls-2" x="490.51" y="490.51" width="40.88" height="40.88" transform="translate(1021.89 1021.89) rotate(180)"/>
      <rect class="cls-2" x="531.38" y="490.51" width="40.88" height="40.88" transform="translate(1103.64 1021.89) rotate(180)"/>
      <rect class="cls-2" x="572.26" y="490.51" width="40.88" height="40.88" transform="translate(1185.39 1021.89) rotate(180)"/>
      <rect class="cls-2" x="490.51" y="531.38" width="40.88" height="40.88" transform="translate(1021.89 1103.64) rotate(180)"/>
      <rect class="cls-2" x="531.38" y="531.38" width="40.88" height="40.88" transform="translate(1103.64 1103.64) rotate(180)"/>
      <rect class="cls-2" x="572.26" y="531.38" width="40.88" height="40.88" transform="translate(1185.39 1103.64) rotate(180)"/>
      <rect class="cls-2" x="490.51" y="572.26" width="40.88" height="40.88" transform="translate(1021.89 1185.4) rotate(180)"/>
      <rect class="cls-2" x="531.38" y="572.26" width="40.88" height="40.88" transform="translate(1103.64 1185.4) rotate(180)"/>
      <rect class="cls-2" x="572.26" y="572.26" width="40.88" height="40.88" transform="translate(1185.39 1185.4) rotate(180)"/>
      <rect class="cls-5" x="449.63" y="613.14" width="40.88" height="40.88" transform="translate(940.14 1267.15) rotate(180)"/>
      <rect class="cls-5" x="490.51" y="613.14" width="40.88" height="40.88" transform="translate(1021.89 1267.15) rotate(180)"/>
      <rect class="cls-5" x="531.38" y="613.14" width="40.88" height="40.88" transform="translate(1103.64 1267.15) rotate(180)"/>
      <rect class="cls-5" x="449.63" y="654.01" width="40.88" height="40.88" transform="translate(940.14 1348.9) rotate(180)"/>
      <rect class="cls-5" x="490.51" y="654.01" width="40.88" height="40.88" transform="translate(1021.89 1348.9) rotate(180)"/>
      <rect class="cls-5" x="531.38" y="654.01" width="40.88" height="40.88" transform="translate(1103.64 1348.9) rotate(180)"/>
      <rect class="cls-1" x="449.63" y="694.89" width="40.88" height="40.88" transform="translate(940.14 1430.65) rotate(180)"/>
      <rect class="cls-1" x="490.51" y="694.89" width="40.88" height="40.88" transform="translate(1021.89 1430.65) rotate(180)"/>
      <rect class="cls-1" x="531.38" y="694.89" width="40.88" height="40.88" transform="translate(1103.64 1430.65) rotate(180)"/>
      <rect class="cls-1" x="408.76" y="735.76" width="40.88" height="40.88" transform="translate(858.39 1512.4) rotate(180)"/>
      <rect class="cls-1" x="449.63" y="735.76" width="40.88" height="40.88" transform="translate(940.14 1512.4) rotate(180)"/>
      <rect class="cls-1" x="490.51" y="735.76" width="40.88" height="40.88" transform="translate(1021.89 1512.4) rotate(180)"/>
      <rect class="cls-5" x="367.88" y="776.64" width="40.88" height="40.88" transform="translate(776.64 1594.15) rotate(180)"/>
      <rect class="cls-5" x="408.76" y="776.64" width="40.88" height="40.88" transform="translate(858.39 1594.15) rotate(180)"/>
      <rect class="cls-5" x="449.63" y="776.64" width="40.88" height="40.88" transform="translate(940.14 1594.15) rotate(180)"/>
      <rect class="cls-1" x="327" y="817.51" width="40.88" height="40.88" transform="translate(694.89 1675.9) rotate(180)"/>
      <rect class="cls-1" x="367.88" y="817.51" width="40.88" height="40.88" transform="translate(776.64 1675.9) rotate(180)"/>
      <rect class="cls-1" x="408.76" y="817.51" width="40.88" height="40.88" transform="translate(858.39 1675.9) rotate(180)"/>
      <rect class="cls-1" x="286.13" y="858.39" width="40.88" height="40.88" transform="translate(613.13 1757.66) rotate(180)"/>
      <rect class="cls-1" x="327" y="858.39" width="40.88" height="40.88" transform="translate(694.88 1757.66) rotate(180)"/>
      <rect class="cls-1" x="367.88" y="858.39" width="40.88" height="40.88" transform="translate(776.64 1757.66) rotate(180)"/>
      <rect class="cls-3" x="286.13" y="40.88" width="40.88" height="40.88" transform="translate(613.13 122.63) rotate(180)"/>
      <rect class="cls-3" x="245.25" y="40.88" width="40.88" height="40.88" transform="translate(531.38 122.63) rotate(180)"/>
      <rect class="cls-3" x="204.38" y="40.88" width="40.88" height="40.88" transform="translate(449.63 122.63) rotate(180)"/>
      <rect class="cls-3" x="286.13" y="81.75" width="40.88" height="40.88" transform="translate(613.13 204.38) rotate(180)"/>
      <rect class="cls-3" x="245.25" y="81.75" width="40.88" height="40.88" transform="translate(531.38 204.38) rotate(180)"/>
      <rect class="cls-3" x="204.38" y="81.75" width="40.88" height="40.88" transform="translate(449.63 204.38) rotate(180)"/>
      <rect class="cls-3" x="163.5" y="81.75" width="40.88" height="40.88" transform="translate(367.88 204.38) rotate(180)"/>
      <rect class="cls-3" x="327" y="81.75" width="40.88" height="40.88" transform="translate(694.89 204.38) rotate(180)"/>
      <rect class="cls-1" x="286.13" y="122.63" width="40.88" height="40.88" transform="translate(613.13 286.13) rotate(180)"/>
      <rect class="cls-1" x="245.25" y="122.63" width="40.88" height="40.88" transform="translate(531.38 286.13) rotate(180)"/>
      <rect class="cls-1" x="204.38" y="122.63" width="40.88" height="40.88" transform="translate(449.63 286.13) rotate(180)"/>
      <rect class="cls-3" x="163.5" y="122.63" width="40.88" height="40.88" transform="translate(367.88 286.13) rotate(180)"/>
      <rect class="cls-3" x="327" y="122.63" width="40.88" height="40.88" transform="translate(694.89 286.13) rotate(180)"/>
      <rect class="cls-3" x="367.88" y="122.63" width="40.88" height="40.88" transform="translate(776.64 286.13) rotate(180)"/>
      <rect class="cls-5" x="286.13" y="163.5" width="40.88" height="40.88" transform="translate(613.13 367.88) rotate(180)"/>
      <rect class="cls-5" x="245.25" y="163.5" width="40.88" height="40.88" transform="translate(531.38 367.88) rotate(180)"/>
      <rect class="cls-5" x="204.38" y="163.5" width="40.88" height="40.88" transform="translate(449.63 367.88) rotate(180)"/>
      <rect class="cls-1" x="163.5" y="163.5" width="40.88" height="40.88" transform="translate(367.88 367.88) rotate(180)"/>
      <rect class="cls-1" x="327" y="163.5" width="40.88" height="40.88" transform="translate(694.89 367.88) rotate(180)"/>
      <rect class="cls-3" x="367.88" y="163.5" width="40.88" height="40.88" transform="translate(776.64 367.88) rotate(180)"/>
      <rect class="cls-5" x="286.13" y="204.38" width="40.88" height="40.88" transform="translate(613.13 449.63) rotate(180)"/>
      <rect class="cls-3" x="245.25" y="204.38" width="40.88" height="40.88" transform="translate(531.38 449.63) rotate(180)"/>
      <rect class="cls-5" x="204.38" y="204.38" width="40.88" height="40.88" transform="translate(449.63 449.63) rotate(180)"/>
      <rect class="cls-1" x="163.5" y="204.38" width="40.88" height="40.88" transform="translate(367.88 449.63) rotate(180)"/>
      <rect class="cls-3" x="327" y="204.38" width="40.88" height="40.88" transform="translate(694.89 449.63) rotate(180)"/>
      <rect class="cls-3" x="367.88" y="204.38" width="40.88" height="40.88" transform="translate(776.64 449.63) rotate(180)"/>
      <rect class="cls-3" x="286.13" y="245.25" width="40.88" height="40.88" transform="translate(613.13 531.38) rotate(180)"/>
      <rect class="cls-3" x="245.25" y="245.25" width="40.88" height="40.88" transform="translate(531.38 531.38) rotate(180)"/>
      <rect class="cls-3" x="204.38" y="245.25" width="40.88" height="40.88" transform="translate(449.63 531.38) rotate(180)"/>
      <rect class="cls-5" x="163.5" y="245.25" width="40.88" height="40.88" transform="translate(367.88 531.38) rotate(180)"/>
      <rect class="cls-3" x="327" y="245.25" width="40.88" height="40.88" transform="translate(694.89 531.38) rotate(180)"/>
      <rect class="cls-3" x="367.88" y="245.25" width="40.88" height="40.88" transform="translate(776.64 531.38) rotate(180)"/>
      <rect class="cls-4" x="408.76" y="163.5" width="40.88" height="40.88" transform="translate(858.39 367.88) rotate(180)"/>
      <rect class="cls-4" x="408.76" y="204.38" width="40.88" height="40.88" transform="translate(858.39 449.63) rotate(180)"/>
      <rect class="cls-4" x="408.76" y="245.25" width="40.88" height="40.88" transform="translate(858.39 531.38) rotate(180)"/>
      <rect class="cls-3" x="286.13" y="286.13" width="40.88" height="40.88" transform="translate(613.13 613.14) rotate(180)"/>
      <rect class="cls-3" x="245.25" y="286.13" width="40.88" height="40.88" transform="translate(531.38 613.14) rotate(180)"/>
      <rect class="cls-3" x="204.38" y="286.13" width="40.88" height="40.88" transform="translate(449.63 613.14) rotate(180)"/>
      <rect class="cls-5" x="163.5" y="286.13" width="40.88" height="40.88" transform="translate(367.88 613.14) rotate(180)"/>
      <rect class="cls-5" x="327" y="286.13" width="40.88" height="40.88" transform="translate(694.89 613.14) rotate(180)"/>
      <rect class="cls-1" x="367.88" y="286.13" width="40.88" height="40.88" transform="translate(776.64 613.14) rotate(180)"/>
      <rect class="cls-5" x="327" y="245.25" width="40.88" height="40.88" transform="translate(694.89 531.38) rotate(180)"/>
      <rect class="cls-1" x="367.88" y="245.25" width="40.88" height="40.88" transform="translate(776.64 531.38) rotate(180)"/>
      <rect class="cls-1" x="327" y="204.38" width="40.88" height="40.88" transform="translate(694.88 449.63) rotate(180)"/>
      <rect class="cls-4" x="286.13" y="327.01" width="40.88" height="40.88" transform="translate(613.13 694.89) rotate(180)"/>
      <rect class="cls-3" x="245.25" y="327.01" width="40.88" height="40.88" transform="translate(531.38 694.89) rotate(180)"/>
      <rect class="cls-3" x="204.38" y="327.01" width="40.88" height="40.88" transform="translate(449.63 694.89) rotate(180)"/>
      <rect class="cls-5" x="163.5" y="327.01" width="40.88" height="40.88" transform="translate(367.88 694.89) rotate(180)"/>
      <rect class="cls-5" x="327" y="327.01" width="40.88" height="40.88" transform="translate(694.88 694.89) rotate(180)"/>
      <rect class="cls-1" x="367.88" y="327.01" width="40.88" height="40.88" transform="translate(776.64 694.89) rotate(180)"/>
      <rect class="cls-4" x="286.13" y="367.88" width="40.88" height="40.88" transform="translate(613.13 776.64) rotate(180)"/>
      <rect class="cls-4" x="245.25" y="367.88" width="40.88" height="40.88" transform="translate(531.38 776.64) rotate(180)"/>
      <rect class="cls-3" x="204.38" y="367.88" width="40.88" height="40.88" transform="translate(449.63 776.64) rotate(180)"/>
      <rect class="cls-3" x="163.5" y="367.88" width="40.88" height="40.88" transform="translate(367.88 776.64) rotate(180)"/>
      <rect class="cls-4" x="327" y="367.88" width="40.88" height="40.88" transform="translate(694.88 776.64) rotate(180)"/>
      <rect class="cls-5" x="367.88" y="367.88" width="40.88" height="40.88" transform="translate(776.64 776.64) rotate(180)"/>
      <rect class="cls-4" x="408.76" y="286.13" width="40.88" height="40.88" transform="translate(858.39 613.14) rotate(180)"/>
      <rect class="cls-1" x="408.76" y="327.01" width="40.88" height="40.88" transform="translate(858.39 694.89) rotate(180)"/>
      <rect class="cls-1" x="408.76" y="367.88" width="40.88" height="40.88" transform="translate(858.39 776.64) rotate(180)"/>
      <rect class="cls-4" x="286.13" y="408.76" width="40.88" height="40.88" transform="translate(613.13 858.39) rotate(180)"/>
      <rect class="cls-4" x="245.25" y="408.76" width="40.88" height="40.88" transform="translate(531.38 858.39) rotate(180)"/>
      <rect class="cls-4" x="204.38" y="408.76" width="40.88" height="40.88" transform="translate(449.63 858.39) rotate(180)"/>
      <rect class="cls-3" x="163.5" y="408.76" width="40.88" height="40.88" transform="translate(367.88 858.39) rotate(180)"/>
      <rect class="cls-3" x="327" y="408.76" width="40.88" height="40.88" transform="translate(694.88 858.39) rotate(180)"/>
      <rect class="cls-5" x="367.88" y="408.76" width="40.88" height="40.88" transform="translate(776.64 858.39) rotate(180)"/>
      <rect class="cls-3" x="286.13" y="449.63" width="40.88" height="40.88" transform="translate(613.13 940.14) rotate(180)"/>
      <rect class="cls-4" x="245.25" y="449.63" width="40.88" height="40.88" transform="translate(531.38 940.14) rotate(180)"/>
      <rect class="cls-4" x="204.38" y="449.63" width="40.88" height="40.88" transform="translate(449.63 940.14) rotate(180)"/>
      <rect class="cls-4" x="163.5" y="449.63" width="40.88" height="40.88" transform="translate(367.88 940.14) rotate(180)"/>
      <rect class="cls-3" x="327" y="449.63" width="40.88" height="40.88" transform="translate(694.88 940.14) rotate(180)"/>
      <rect class="cls-5" x="367.88" y="449.63" width="40.88" height="40.88" transform="translate(776.64 940.14) rotate(180)"/>
      <rect class="cls-3" x="286.13" y="490.51" width="40.88" height="40.88" transform="translate(613.13 1021.89) rotate(180)"/>
      <rect class="cls-3" x="245.25" y="490.51" width="40.88" height="40.88" transform="translate(531.38 1021.89) rotate(180)"/>
      <rect class="cls-4" x="204.38" y="490.51" width="40.88" height="40.88" transform="translate(449.63 1021.89) rotate(180)"/>
      <rect class="cls-4" x="163.5" y="490.51" width="40.88" height="40.88" transform="translate(367.88 1021.89) rotate(180)"/>
      <rect class="cls-3" x="327" y="490.51" width="40.88" height="40.88" transform="translate(694.88 1021.89) rotate(180)"/>
      <rect class="cls-5" x="367.88" y="490.51" width="40.88" height="40.88" transform="translate(776.64 1021.89) rotate(180)"/>
      <rect class="cls-1" x="408.76" y="408.76" width="40.88" height="40.88" transform="translate(858.39 858.39) rotate(180)"/>
      <rect class="cls-1" x="408.76" y="449.63" width="40.88" height="40.88" transform="translate(858.39 940.14) rotate(180)"/>
      <rect class="cls-1" x="408.76" y="490.51" width="40.88" height="40.88" transform="translate(858.39 1021.89) rotate(180)"/>
      <rect class="cls-3" x="286.13" y="531.38" width="40.88" height="40.88" transform="translate(613.13 1103.64) rotate(180)"/>
      <rect class="cls-3" x="245.25" y="531.38" width="40.88" height="40.88" transform="translate(531.38 1103.64) rotate(180)"/>
      <rect class="cls-3" x="204.38" y="531.38" width="40.88" height="40.88" transform="translate(449.63 1103.64) rotate(180)"/>
      <rect class="cls-4" x="163.5" y="531.38" width="40.88" height="40.88" transform="translate(367.88 1103.64) rotate(180)"/>
      <rect class="cls-3" x="327" y="531.38" width="40.88" height="40.88" transform="translate(694.88 1103.64) rotate(180)"/>
      <rect class="cls-1" x="367.88" y="531.38" width="40.88" height="40.88" transform="translate(776.64 1103.64) rotate(180)"/>
      <rect class="cls-3" x="286.13" y="572.26" width="40.88" height="40.88" transform="translate(613.13 1185.4) rotate(180)"/>
      <rect class="cls-3" x="245.25" y="572.26" width="40.88" height="40.88" transform="translate(531.38 1185.4) rotate(180)"/>
      <rect class="cls-3" x="204.38" y="572.26" width="40.88" height="40.88" transform="translate(449.63 1185.4) rotate(180)"/>
      <rect class="cls-3" x="163.5" y="572.26" width="40.88" height="40.88" transform="translate(367.88 1185.4) rotate(180)"/>
      <rect class="cls-3" x="122.63" y="122.63" width="40.88" height="40.88" transform="translate(286.13 286.13) rotate(180)"/>
      <rect class="cls-3" x="122.63" y="163.5" width="40.88" height="40.88" transform="translate(286.13 367.88) rotate(180)"/>
      <rect class="cls-3" x="122.63" y="204.38" width="40.88" height="40.88" transform="translate(286.13 449.63) rotate(180)"/>
      <rect class="cls-1" x="122.63" y="245.25" width="40.88" height="40.88" transform="translate(286.13 531.38) rotate(180)"/>
      <rect class="cls-1" x="122.63" y="286.13" width="40.88" height="40.88" transform="translate(286.13 613.14) rotate(180)"/>
      <rect class="cls-1" x="122.63" y="327.01" width="40.88" height="40.88" transform="translate(286.13 694.89) rotate(180)"/>
      <rect class="cls-3" x="122.63" y="367.88" width="40.88" height="40.88" transform="translate(286.13 776.64) rotate(180)"/>
      <rect class="cls-3" x="122.63" y="408.76" width="40.88" height="40.88" transform="translate(286.13 858.39) rotate(180)"/>
      <rect class="cls-3" x="122.63" y="449.63" width="40.88" height="40.88" transform="translate(286.13 940.14) rotate(180)"/>
      <rect class="cls-4" x="122.63" y="490.51" width="40.88" height="40.88" transform="translate(286.13 1021.89) rotate(180)"/>
      <rect class="cls-1" x="122.63" y="531.38" width="40.88" height="40.88" transform="translate(286.13 1103.64) rotate(180)"/>
      <rect class="cls-1" x="122.63" y="572.26" width="40.88" height="40.88" transform="translate(286.13 1185.4) rotate(180)"/>
      <rect class="cls-3" x="327" y="572.26" width="40.88" height="40.88" transform="translate(694.88 1185.4) rotate(180)"/>
      <rect class="cls-1" x="367.88" y="572.26" width="40.88" height="40.88" transform="translate(776.64 1185.4) rotate(180)"/>
      <rect class="cls-1" x="408.76" y="531.38" width="40.88" height="40.88" transform="translate(858.39 1103.64) rotate(180)"/>
      <rect class="cls-3" x="408.76" y="572.26" width="40.88" height="40.88" transform="translate(858.39 1185.4) rotate(180)"/>
      <rect class="cls-3" x="245.25" y="613.14" width="40.88" height="40.88" transform="translate(531.38 1267.15) rotate(180)"/>
      <rect class="cls-3" x="204.38" y="613.14" width="40.88" height="40.88" transform="translate(449.63 1267.15) rotate(180)"/>
      <rect class="cls-3" x="163.5" y="613.14" width="40.88" height="40.88" transform="translate(367.88 1267.15) rotate(180)"/>
      <rect class="cls-1" x="122.63" y="613.14" width="40.88" height="40.88" transform="translate(286.13 1267.15) rotate(180)"/>
      <rect class="cls-3" x="286.13" y="613.14" width="40.88" height="40.88" transform="translate(613.13 1267.15) rotate(180)"/>
      <rect class="cls-3" x="327" y="613.14" width="40.88" height="40.88" transform="translate(694.88 1267.15) rotate(180)"/>
      <rect class="cls-3" x="245.25" y="654.01" width="40.88" height="40.88" transform="translate(531.38 1348.9) rotate(180)"/>
      <rect class="cls-3" x="204.38" y="654.01" width="40.88" height="40.88" transform="translate(449.63 1348.9) rotate(180)"/>
      <rect class="cls-1" x="163.5" y="654.01" width="40.88" height="40.88" transform="translate(367.88 1348.9) rotate(180)"/>
      <rect class="cls-3" x="122.63" y="654.01" width="40.88" height="40.88" transform="translate(286.13 1348.9) rotate(180)"/>
      <rect class="cls-3" x="286.13" y="654.01" width="40.88" height="40.88" transform="translate(613.13 1348.9) rotate(180)"/>
      <rect class="cls-1" x="327" y="654.01" width="40.88" height="40.88" transform="translate(694.88 1348.9) rotate(180)"/>
      <rect class="cls-3" x="245.25" y="694.89" width="40.88" height="40.88" transform="translate(531.38 1430.65) rotate(180)"/>
      <rect class="cls-3" x="204.38" y="694.89" width="40.88" height="40.88" transform="translate(449.63 1430.65) rotate(180)"/>
      <rect class="cls-1" x="163.5" y="694.89" width="40.88" height="40.88" transform="translate(367.88 1430.65) rotate(180)"/>
      <rect class="cls-3" x="122.63" y="694.89" width="40.88" height="40.88" transform="translate(286.13 1430.65) rotate(180)"/>
      <rect class="cls-3" x="81.75" y="163.5" width="40.88" height="40.88" transform="translate(204.38 367.88) rotate(180)"/>
      <rect class="cls-3" x="81.75" y="204.38" width="40.88" height="40.88" transform="translate(204.38 449.63) rotate(180)"/>
      <rect class="cls-3" x="81.75" y="245.25" width="40.88" height="40.88" transform="translate(204.38 531.38) rotate(180)"/>
      <rect class="cls-3" x="81.75" y="286.13" width="40.88" height="40.88" transform="translate(204.38 613.14) rotate(180)"/>
      <rect class="cls-1" x="81.75" y="327.01" width="40.88" height="40.88" transform="translate(204.38 694.89) rotate(180)"/>
      <rect class="cls-1" x="81.75" y="367.88" width="40.88" height="40.88" transform="translate(204.38 776.64) rotate(180)"/>
      <rect class="cls-1" x="81.75" y="408.76" width="40.88" height="40.88" transform="translate(204.38 858.39) rotate(180)"/>
      <rect class="cls-1" x="81.75" y="449.63" width="40.88" height="40.88" transform="translate(204.38 940.14) rotate(180)"/>
      <rect class="cls-1" x="81.75" y="490.51" width="40.88" height="40.88" transform="translate(204.38 1021.89) rotate(180)"/>
      <rect class="cls-1" x="81.75" y="531.38" width="40.88" height="40.88" transform="translate(204.38 1103.64) rotate(180)"/>
      <rect class="cls-4" x="81.75" y="572.26" width="40.88" height="40.88" transform="translate(204.38 1185.4) rotate(180)"/>
      <rect class="cls-3" x="40.88" y="286.13" width="40.88" height="40.88" transform="translate(122.63 613.14) rotate(180)"/>
      <rect class="cls-3" x="40.88" y="327.01" width="40.88" height="40.88" transform="translate(122.63 694.89) rotate(180)"/>
      <rect class="cls-3" x="40.88" y="367.88" width="40.88" height="40.88" transform="translate(122.63 776.64) rotate(180)"/>
      <rect class="cls-3" x="40.88" y="408.76" width="40.88" height="40.88" transform="translate(122.63 858.39) rotate(180)"/>
      <rect class="cls-3" x="40.88" y="449.63" width="40.88" height="40.88" transform="translate(122.63 940.14) rotate(180)"/>
      <rect class="cls-3" x="40.88" y="490.51" width="40.88" height="40.88" transform="translate(122.63 1021.89) rotate(180)"/>
      <rect class="cls-3" x="40.88" y="531.38" width="40.88" height="40.88" transform="translate(122.63 1103.64) rotate(180)"/>
      <rect class="cls-4" x="40.88" y="572.26" width="40.88" height="40.88" transform="translate(122.63 1185.4) rotate(180)"/>
      <rect class="cls-4" x="81.75" y="613.14" width="40.88" height="40.88" transform="translate(204.38 1267.15) rotate(180)"/>
      <rect class="cls-3" x="81.75" y="654.01" width="40.88" height="40.88" transform="translate(204.38 1348.9) rotate(180)"/>
      <rect class="cls-3" x="81.75" y="694.89" width="40.88" height="40.88" transform="translate(204.38 1430.65) rotate(180)"/>
      <rect class="cls-3" x="286.13" y="694.89" width="40.88" height="40.88" transform="translate(613.13 1430.65) rotate(180)"/>
      <rect class="cls-1" x="327" y="694.89" width="40.88" height="40.88" transform="translate(694.88 1430.65) rotate(180)"/>
      <rect class="cls-1" x="245.25" y="735.76" width="40.88" height="40.88" transform="translate(531.38 1512.4) rotate(180)"/>
      <rect class="cls-1" x="204.38" y="735.76" width="40.88" height="40.88" transform="translate(449.63 1512.4) rotate(180)"/>
      <rect class="cls-3" x="163.5" y="735.76" width="40.88" height="40.88" transform="translate(367.88 1512.4) rotate(180)"/>
      <rect class="cls-3" x="122.63" y="735.76" width="40.88" height="40.88" transform="translate(286.13 1512.4) rotate(180)"/>
      <rect class="cls-1" x="286.13" y="735.76" width="40.88" height="40.88" transform="translate(613.13 1512.4) rotate(180)"/>
      <rect class="cls-3" x="245.25" y="776.64" width="40.88" height="40.88" transform="translate(531.38 1594.15) rotate(180)"/>
      <rect class="cls-3" x="204.38" y="776.64" width="40.88" height="40.88" transform="translate(449.63 1594.15) rotate(180)"/>
      <rect class="cls-3" x="245.25" y="817.51" width="40.88" height="40.88" transform="translate(531.38 1675.9) rotate(180)"/>
      <rect class="cls-3" x="204.38" y="817.51" width="40.88" height="40.88" transform="translate(449.63 1675.9) rotate(180)"/>
      <rect class="cls-3" x="163.5" y="776.64" width="40.88" height="40.88" transform="translate(367.88 1594.15) rotate(180)"/>
      <rect class="cls-3" x="286.13" y="776.64" width="40.88" height="40.88" transform="translate(613.13 1594.15) rotate(180)"/>
      <rect class="cls-3" x="327" y="735.76" width="40.88" height="40.88" transform="translate(694.89 1512.4) rotate(180)"/>
      <rect class="cls-1" x="367.88" y="613.14" width="40.88" height="40.88" transform="translate(776.64 1267.15) rotate(180)"/>
      <rect class="cls-3" x="367.88" y="654.01" width="40.88" height="40.88" transform="translate(776.64 1348.9) rotate(180)"/>
      <rect class="cls-3" x="367.88" y="694.89" width="40.88" height="40.88" transform="translate(776.64 1430.65) rotate(180)"/>
      <rect class="cls-3" x="286.13" y="817.51" width="40.88" height="40.88" transform="translate(613.13 1675.9) rotate(180)"/>
      <rect class="cls-5" x="245.25" y="858.39" width="40.88" height="40.88" transform="translate(531.38 1757.66) rotate(180)"/>
      <rect class="cls-5" x="204.38" y="858.39" width="40.88" height="40.88" transform="translate(449.63 1757.66) rotate(180)"/>
      <rect class="cls-3" x="327" y="776.64" width="40.88" height="40.88" transform="translate(694.89 1594.15) rotate(180)"/>
      <rect class="cls-3" x="367.88" y="735.76" width="40.88" height="40.88" transform="translate(776.64 1512.4) rotate(180)"/>
      <rect class="cls-3" x="408.76" y="694.89" width="40.88" height="40.88" transform="translate(858.39 1430.65) rotate(180)"/>
      <rect class="cls-3" x="408.76" y="654.01" width="40.88" height="40.88" transform="translate(858.39 1348.9) rotate(180)"/>
      <rect class="cls-3" x="408.76" y="613.14" width="40.88" height="40.88" transform="translate(858.39 1267.15) rotate(180)"/>
      <rect class="cls-4" x="449.63" y="286.13" width="40.88" height="40.88" transform="translate(940.14 613.14) rotate(180)"/>
      <rect class="cls-3" x="449.63" y="327.01" width="40.88" height="40.88" transform="translate(940.14 694.89) rotate(180)"/>
      <rect class="cls-3" x="449.63" y="367.88" width="40.88" height="40.88" transform="translate(940.14 776.64) rotate(180)"/>
      <rect class="cls-3" x="449.63" y="408.76" width="40.88" height="40.88" transform="translate(940.14 858.39) rotate(180)"/>
      <rect class="cls-3" x="449.63" y="449.63" width="40.88" height="40.88" transform="translate(940.14 940.14) rotate(180)"/>
      <rect class="cls-3" x="449.63" y="490.51" width="40.88" height="40.88" transform="translate(940.14 1021.89) rotate(180)"/>
      <rect class="cls-3" x="449.63" y="531.38" width="40.88" height="40.88" transform="translate(940.14 1103.64) rotate(180)"/>
      <rect class="cls-3" x="449.63" y="572.26" width="40.88" height="40.88" transform="translate(940.14 1185.4) rotate(180)"/>
      <rect class="cls-5" x="163.5" y="40.88" width="40.88" height="40.88"/>
      <rect class="cls-5" x="122.63" y="81.75" width="40.88" height="40.88"/>
      <rect class="cls-5" x="81.75" y="122.63" width="40.88" height="40.88"/>
      <rect class="cls-5" x="40.88" y="163.5" width="40.88" height="40.88"/>
      <rect class="cls-5" x="40.88" y="204.38" width="40.88" height="40.88"/>
      <rect class="cls-5" x="40.88" y="245.25" width="40.88" height="40.88"/>
      <rect class="cls-5" x="163.5" y="817.51" width="40.88" height="40.88"/>
      <rect class="cls-5" x="122.63" y="776.64" width="40.88" height="40.88"/>
      <rect class="cls-5" x="81.75" y="735.76" width="40.88" height="40.88"/>
      <rect class="cls-5" x="40.88" y="694.89" width="40.88" height="40.88"/>
      <rect class="cls-5" x="40.88" y="654.01" width="40.88" height="40.88"/>
      <rect class="cls-5" x="40.88" y="613.14" width="40.88" height="40.88"/>
      <rect class="cls-5" y="286.13" width="40.88" height="40.88"/>
      <rect class="cls-5" y="327.01" width="40.88" height="40.88"/>
      <rect class="cls-5" y="367.88" width="40.88" height="40.88"/>
      <rect class="cls-5" y="408.76" width="40.88" height="40.88"/>
      <rect class="cls-5" y="449.63" width="40.88" height="40.88"/>
      <rect class="cls-5" y="490.51" width="40.88" height="40.88"/>
      <rect class="cls-5" y="531.38" width="40.88" height="40.88"/>
      <rect class="cls-5" y="572.26" width="40.88" height="40.88"/>
      <rect class="cls-5" x="204.38" width="40.88" height="40.88" transform="translate(449.63 40.88) rotate(180)"/>
    </g>
  </g>
</svg>